<?xml version="1.0" encoding="utf-8"?>
<!-- Generator: Adobe Illustrator 16.0.0, SVG Export Plug-In . SVG Version: 6.00 Build 0)  -->
<!DOCTYPE svg PUBLIC "-//W3C//DTD SVG 1.1//EN" "http://www.w3.org/Graphics/SVG/1.1/DTD/svg11.dtd">
<svg version="1.1" id="图层_1" xmlns="http://www.w3.org/2000/svg" xmlns:xlink="http://www.w3.org/1999/xlink" x="0px" y="0px"
	 width="185.5px" height="231.5px" viewBox="0 0 185.5 231.5" enable-background="new 0 0 185.5 231.5" xml:space="preserve">
<g>
	<defs>
		<filter id="Adobe_OpacityMaskFilter" filterUnits="userSpaceOnUse" x="28.629" y="217.871" width="128.667" height="6.98">
			<feFlood  style="flood-color:white;flood-opacity:1" result="back"/>
			<feBlend  in="SourceGraphic" in2="back" mode="normal"/>
		</filter>
	</defs>
	<mask maskUnits="userSpaceOnUse" x="28.629" y="217.871" width="128.667" height="6.98" id="SVGID_1_">
		<g filter="url(#Adobe_OpacityMaskFilter)">
			<image overflow="visible" width="134" height="12" xlink:href="1C668D3D.jpg"  transform="matrix(1 0 0 1 26 215.5)">
			</image>
		</g>
	</mask>
	<g mask="url(#SVGID_1_)">
		<ellipse fill="#0590D6" cx="92.962" cy="221.361" rx="64.333" ry="3.49"/>
	</g>
</g>
<g>
	<g>
		
			<image overflow="visible" opacity="0.75" width="234" height="262" xlink:href="1C668D3F.png"  transform="matrix(1 0 0 1 -24.2788 -24.3423)">
		</image>
		<g>
			<g>
				<path fill="#FFF8DC" d="M92.643,6.003L92.643,6.003h-0.002c-63.489,0-86.893,10.29-86.893,10.29v104.298
					c0,47.989,86.893,86.893,86.893,86.893l0.001-0.002l0.001,0.002c0,0,86.893-38.904,86.893-86.893V16.293
					C179.535,16.293,156.131,6.003,92.643,6.003z"/>
				<g>
					<path fill="#F4BF3D" d="M163.553,127.761c0,15.764-34.769,43.551-70.911,62.749c-36.142-19.197-70.912-46.984-70.912-62.749
						V27.785c14.716-2.042,34.086-3.909,57.759-4.407c0.76-0.014,1.501-0.032,2.272-0.044c0.043-0.001,0.088-0.001,0.131-0.002
						c3.466-0.053,7.056-0.081,10.75-0.084c3.695,0.004,7.285,0.032,10.75,0.084c0.043,0.001,0.088,0.001,0.131,0.002
						c0.771,0.012,1.514,0.03,2.273,0.044c23.672,0.498,43.043,2.365,57.757,4.407V127.761z"/>
				</g>
			</g>
		</g>
	</g>
	<path fill="#4775EA" d="M132.307,60.25c16.113,4.525,13.934,17.063,13.545,20.775c-0.342,3.276-6.697,31.178-12.764,41.753
		c-7.057,12.333-16.016,18.314-25.031,18.925c-9.029,0.617-61.05,0.211-61.05,0.211l20.996-68.627L39.119,42
		C39.119,42,116.032,55.671,132.307,60.25 M80.23,124.412c0,0,9.934-0.145,12.871,0c3.924,0.211,9.225,0.415,12.77-6.373
		c3.285-6.316,10.975-30.079,11.773-33.11c0.98-3.709-0.59-9.261-5.889-10.081c-8.65-0.406-15.818-0.406-15.818-0.406L80.23,124.412
		z"/>
</g>
</svg>
