<?xml version="1.0" encoding="utf-8"?>
<!-- Generator: Adobe Illustrator 16.0.0, SVG Export Plug-In . SVG Version: 6.00 Build 0)  -->
<!DOCTYPE svg PUBLIC "-//W3C//DTD SVG 1.1//EN" "http://www.w3.org/Graphics/SVG/1.1/DTD/svg11.dtd">
<svg version="1.1" id="图层_1" xmlns="http://www.w3.org/2000/svg" xmlns:xlink="http://www.w3.org/1999/xlink" x="0px" y="0px"
	 width="79.706px" height="56.968px" viewBox="0 0 79.706 56.968" enable-background="new 0 0 79.706 56.968" xml:space="preserve">
<path fill="#009966" stroke="#FFFFFF" stroke-width="3" stroke-miterlimit="10" d="M78.219,50.461c0,2.773-2.324,5.018-5.201,5.018
	H6.715c-2.871,0-5.201-2.244-5.201-5.018V6.534c0-2.779,2.33-5.023,5.201-5.023h66.303c2.877,0,5.201,2.244,5.201,5.023V50.461z"/>
<g>
	<path fill="#FFFFFF" d="M78.352,52.316c-1.793-1.408-34.549-27.019-38.182-27.019c-3.633,0-36.39,25.611-38.182,27.019
		c-0.052,0.033-0.17,0.131-0.17,0.131h0.199c0.472,2.305,2.474,4.072,5,4.072h66.303c2.529,0,4.531-1.768,5.002-4.072h0.199
		C78.522,52.447,78.401,52.35,78.352,52.316z M68.139,54.08H12.201c-2.132,0-7.431,0.814-5.587-2.072
		c0,0,30.489-24.271,33.556-24.271c3.065,0,33.274,23.99,33.274,23.99C75.366,54.33,70.274,54.08,68.139,54.08z"/>
	<path fill="#009966" d="M40.17,27.737c-3.066,0-33.556,24.271-33.556,24.271c-1.844,2.887,3.455,2.072,5.587,2.072h55.938
		c2.135,0,7.227,0.25,5.305-2.354C73.444,51.727,43.235,27.737,40.17,27.737z"/>
</g>
</svg>
