<?xml version="1.0" encoding="utf-8"?>
<!-- Generator: Adobe Illustrator 16.0.0, SVG Export Plug-In . SVG Version: 6.00 Build 0)  -->
<!DOCTYPE svg PUBLIC "-//W3C//DTD SVG 1.1//EN" "http://www.w3.org/Graphics/SVG/1.1/DTD/svg11.dtd">
<svg version="1.1" id="图层_1" xmlns="http://www.w3.org/2000/svg" xmlns:xlink="http://www.w3.org/1999/xlink" x="0px" y="0px"
	 width="468.516px" height="580.982px" viewBox="0 0 468.516 580.982" enable-background="new 0 0 468.516 580.982"
	 xml:space="preserve">
<g>
	<path opacity="0.5" fill="#41A47B" enable-background="new    " d="M383.644,356.807l1.199-1.371l0,0l0,0v-0.173l-4.29-3.434
		c-2.23-1.544-4.119-2.06-5.491-1.886l-1.89,0.685v3.607c-0.343,1.198-0.856,2.571-2.062,3.601l-0.688,0.688l1.718,2.062h0.174
		l0.515,1.374l2.06,0.855c1.199-0.855,2.06-1.2,2.916-1.03l3.606,0.687l0.17-1.203C381.755,358.865,382.614,357.493,383.644,356.807
		z"/>
	<path opacity="0.5" fill="#41A47B" enable-background="new    " d="M182.979,267.022l-1.038-0.174l-1.727,10.533l2.937,3.453
		l2.762,1.207l0,0h0.172l0.174,0.174l3.626,2.936l5.009,1.209h0.171l2.592,1.725h0.173l0,0v0.348l1.899,2.762l0.344,0.347
		l-0.174,0.344l-1.726,2.764c-0.345,0.346-0.345,1.211-0.345,2.592H198v3.278l-0.172,0.175l0,0l-1.555,5.182l-0.171,0.864h-0.346
		l-0.52-0.174l-2.244-0.518l-2.936,0.169l-2.59,0.866l-2.938,2.418l-0.688,0.689l3.797,1.899l-0.345,0.69
		c-0.173,0.861-1.037,1.725-2.418,2.242l-2.418,0.173l-3.974-1.554l0,0l0,0l-3.624-2.07h-1.554l-4.317,6.215l-0.862,2.07v3.625
		l1.727,2.937v0.175l0,0l0,0l1.039,2.762v0.347l0.169,3.972v0.518l0.173,0.346l-2.762,0.518h-5.184l-2.415,1.557l-1.035,1.727
		l0.172,0.171l1.036,5.181h0.172v2.069l1.212,2.422l3.624,2.415l5.354-1.208l2.589-1.726l0.348-0.173h2.415l1.383,3.28
		c0.86,0.863,1.556,1.727,1.898,2.76l1.212-0.172h0.342h0.347l0.175-0.345l2.414-1.9l2.245,3.975l2.418,1.556h3.453l2.592-0.343
		h0.52l6.215,0.858h0.174v0.171l2.589,1.554l0,0l0,0v0.176l2.245,1.728v0.171l1.554,1.725l1.728,0.693l2.761-0.348V359.4
		l-1.38-2.414h-0.17v-0.174l-1.039-4.49l2.416-2.414l0.173-0.174h0.174l2.073-0.347h2.244l0.688-0.86l-1.381-1.901l-5.007-3.282
		l-1.206-1.898l-0.176-0.17l-0.172-0.175l0.172-0.343l1.382-2.591l0.345,0.343l3.456,0.862l9.148-0.343l0.171,0.174h0.176
		l2.587,0.861l1.729-1.556l-0.862-5.353l-3.278-2.069c-2.766-1.556-3.627-5.354-3.11-11.569l-2.763-1.386l-0.344-0.167h-0.347
		v-0.347v-0.172l-0.52-4.492l3.801-17.613c-1.557-5.18-2.419-8.632-2.419-10.359l-0.346-5.181l0.346-5.698v-0.345l0.349-0.346l0,0
		l3.452-2.59v-2.762c0-0.691-0.347-1.727-1.211-3.109l-2.241-2.416h-0.349v-0.521l-0.346-4.143v-0.173l-0.171-0.171l0.344-0.173
		v-0.174l4.491-5.698v-2.417l-1.384-2.59v-0.173l-0.171-0.344l2.245-2.764v-0.173h0.171l2.419-1.899l-0.346-2.245h-1.21
		l-1.899-0.345l-1.034,4.143l-0.521-0.17l-4.487-1.728l-2.762-0.52l1.034,4.316l-3.8,1.209l-5.525,2.936l-1.725,2.244l0,0v0.174
		h-0.174l-2.936,2.588l-0.518,4.145v0.346l-1.555,5.871h0.17l-0.688,2.762v0.174l0,0l-0.172,0.173l-1.9,2.589h-0.172v0.171
		l-0.172,0.174h-0.174l-4.144,0.518l0,0v0.173l-0.173-0.173l0,0l-6.219-2.071l-0.172-0.174L182.979,267.022z"/>
	<path opacity="0.5" fill="#41A47B" enable-background="new    " d="M307.736,218.491l-0.511-0.342
		c-0.854,0-1.705,0.854-2.559,2.729l-0.513-0.342l-0.169,0.171l0.169,0.171l-1.531,1.533l-0.683,0.34l-1.876,1.025l-0.17,1.189
		c0.17,1.876-0.343,3.24-1.194,3.749l-0.681,2.047c-0.168,0.51-0.34,1.875-0.168,3.748l1.021,5.115
		c0.34,0.68,1.19,1.533,2.897,2.214l3.92,1.022c1.02,0,2.385-0.512,3.917-1.534l-1.021-1.873v-0.342v-0.171l0.343-1.534v-0.171
		l1.875-3.406h3.238l0.851-0.172c-0.34-1.021-1.365-2.896-3.235-5.283l-1.195-1.705c-0.683-1.361-1.361-2.895-1.532-4.941
		C308.588,220.196,308.077,219.174,307.736,218.491z"/>
	<path opacity="0.5" fill="#41A47B" enable-background="new    " d="M61.925,327.821l-3.972-1.206l-4.138-0.518l-1.381,1.551
		l-0.344,2.936l0.171,0.171l1.21,4.484l0.17,3.452v1.035h-2.069l0.862,4.139l-3.277,1.207l-1.38,2.588l1.725,1.38l0.348,0.173l0,0
		l6.037,4.829l0.173,0.175h0.171v0.17v0.176l0.864,4.31l2.76,3.971c0.689,1.032,1.554,2.07,3.104,3.452h0.175l0.17,0.17v0.174
		l-0.17,0.345v3.797c0.514,1.037,0.689,3.276,0.689,6.554c1.552,2.244,2.24,3.797,2.24,4.832c0,0.689,0.518,2.066,1.381,3.966l0,0
		v0.173l0,0c0.344,2.416,0.173,4.487-0.344,6.211c-0.52,1.207,0.171,3.448,2.069,6.556l0.174,0.172l0.171,0.345l-0.171,0.35
		l-2.763,6.037c0.52,1.379,0.69,2.411,0.69,3.104l-0.69,5.693c-0.345,1.896-0.345,2.933,0.52,3.275l1.035,0.689
		c1.552,0.69,2.068,1.552,2.068,2.415l-0.173,2.934l0.864,0.347l0.171,0.172l0.519-0.519c0.519-0.519,1.035-1.207,1.208-2.072
		l0.345-0.514l0.174-0.349c0.689-0.344,1.034-0.862,1.552-1.553c0.173-1.033,0.173-2.066-0.173-3.276l-0.344-0.859l0.861-0.176
		c2.761-0.69,4.314-0.517,4.832,0.69l1.378,3.45v0.171v0.174l0.691,5.694l2.242,1.205h0.174h0.173l1.378,1.211l1.381-1.556
		l1.553-1.208h0.517c1.208,0.348,1.899,1.208,2.244,2.417l0.688,4.484l0.174,0.688l4.657,10.006l1.899,1.894l0.17,0.179v0.171
		l0.864,4.143l0,0l0.344,3.967l0.173,0.344c1.206-1.725,2.242-2.586,2.931-2.242c0.692,0.171,0.864,0.518,0.864,1.205v1.037v3.105
		v0.862c0.862,0.175,1.552,0,1.726-0.519l1.726-2.414l1.897-1.896c1.208-0.866,2.412-1.557,3.795-1.557h0.172l3.622,0.864
		l1.035-0.521l1.897-2.412l-0.344-3.795c-1.207-2.068-1.726-3.795-1.38-5.005l0.517-3.103v-0.349l0.173-0.345l0,0l3.279-1.898h0.171
		l0,0l2.416-1.55l2.76-3.969l0.345-2.931l-3.104-7.248l6.9,3.105v-2.932l0,0v-0.176l2.587-2.242l5.001-1.379h0.347l2.931,6.385
		v0.344l-0.345,2.414l0.345,2.245c0.348,1.034,1.037,1.549,1.553,1.549c0.689,0,1.384-0.515,2.073-1.379l0.172-0.345l0,0h0.173
		l4.14-1.381l0,0h0.17c2.246,0,3.279,0.521,3.796,1.556l0.348,4.651v0.178l0.859,0.173l1.729,0.519l2.584-0.174l4.313-1.209
		l2.589-2.242l0.17-1.896l-1.204-1.383l-4.484-1.552l0,0l-0.347-0.176l0,0v-0.17l-5.177-5.176l0.521-0.344l2.59-2.241l0.168-0.176
		l0,0l2.589-1.036l0,0h0.519l3.449,0.693h0.174l0.171,0.17v-1.379l-1.553-2.589l-2.414-1.204l-3.278-4.834l0,0l-0.173-0.171v-0.174
		l-1.553-5.692v-4.31l2.762-2.59h4.138l9.663,0.862l4.484-6.383v-0.347h0.346l3.624-1.896l1.897-3.795l0.172-0.176l4.311-3.621
		l2.071-3.797v-0.171h0.174v-0.171l0,0l1.727-1.726l2.068-3.449l0.69-5.353v-0.518l0.174-0.173l2.758-1.896l0.691-0.693
		l-4.142-0.688l-6.9,0.345l-0.173-0.172l-2.586-2.065h-0.347v-0.177l0,0l-1.38-2.07l-0.346,0.175l-0.176,0.345
		c-0.343,0.519-1.205,0.688-2.239,0.688l-1.035,0.518c-0.345,0.173-0.519,0.347-1.035,0.173c-0.347,0-0.518-0.518-0.865-1.379
		c-0.17-0.863-0.515-1.727-1.553-2.59l-0.172-0.172v-0.17h-0.169l-0.866-2.245h-0.688l-2.588,1.724l-0.171,0.176h-0.174
		l-6.036,1.207h-0.348l-0.345-0.174l-3.97-2.759l0,0l-0.171-0.174v-0.172h-0.171l-1.037-2.072l-2.933,3.106
		c-2.067,2.416-3.623,3.104-4.658,2.416l-3.966-2.071l-2.763-0.345l-0.344,0.173l-2.586-1.896l-0.175-0.177l-0.52-0.17l1.208-4.658
		v-1.555l-1.55-0.688h-0.173l-3.624-3.97l0.173-2.93l-8.972-0.862l-3.45-1.896c-0.862-0.519-1.552-1.556-2.069-3.278l-0.517-1.207
		l-0.691-2.589l-1.208,0.172l-2.76,2.245l-3.276,3.964l0.689,2.936l1.035,3.795v0.172h0.171l-0.171,0.173v0.175
		c-0.343,1.034-1.381,1.553-2.932,1.553h-3.451l-2.069-1.035l-2.589,1.035l-0.517,0.17l-0.346-0.17l-0.344,2.415l-0.173,0.341V343
		h-0.521l-4.312-1.376c0,1.376,0.174,2.413,0.864,3.62c0.518,1.209,0.688,2.07,0.171,3.104l-0.516,1.383
		c-0.52,0.517-2.071,0.688-4.313,0.517H92.63l-0.173,4.832l-3.794-1.382H88.49l-0.171-0.176l-1.898-3.618l-4.141-1.378l-1.035-2.247
		l-1.552,1.209H79.52l-2.589,0.516h-0.688l-1.381-3.104L73.48,343l-0.171-0.173c-1.381-1.724-2.071-3.275-2.416-4.136
		c0-0.176-0.348-0.519-1.208-0.692l-0.688-0.173c-1.21-0.52-2.071-1.553-2.588-3.102l-0.69-2.938v-2.414l-1.208-2.24l-2.069,0.688
		h-0.173h-0.171H61.925z"/>
	<path opacity="0.5" fill="#41A47B" enable-background="new    " d="M325.604,491.085c1.554-0.176,2.417-0.864,2.76-1.729v-0.172
		l0.173-0.517h0.69l3.106-0.177v-2.241c-0.859,0-1.724-0.349-2.587-1.037l-5.18-4.658v-0.179l-2.246-6.559l-3.106-3.105
		c-3.8-0.175-6.731-0.175-8.803,0l-0.692,0.173l0.173,2.069v0.346v0.52h-0.519l-2.763,1.21l-0.518-0.347
		c-2.243-2.244-3.627-3.106-4.488-2.59c-6.044,2.937-9.497,4.315-10.529,3.624c-0.694,0.175-1.558,0.865-2.765,2.072l-0.52,0.69
		l-0.688-0.69c-1.727-1.552-2.591-2.937-2.591-3.971c0-0.688,1.21-2.074,3.278-4.313c2.418-2.765,3.625-4.318,3.625-4.667
		l-0.519-0.856c-0.688-0.351-2.07,0.343-3.795,1.725c-1.727,1.207-2.768,1.727-3.454,1.554c-0.345,0-0.691-0.519-0.862-1.381
		l-0.176-0.346l-1.551-2.765l-3.28,2.069l-0.344,0.349l-0.174-0.349h-0.176c-2.417-1.379-4.658-2.241-6.903-3.104
		c-1.555-0.52-3.109,0.173-4.661,2.072l1.552,2.59c1.036,2.591,1.556,4.316,1.036,5.525c-0.171,0.518-0.69,1.033-1.38,1.033
		c-1.038,0.346-2.59,0-4.489-1.555c-1.554-1.034-2.764-1.896-3.796-2.414l-2.074-0.863v0.169l0,0l0.174,0.349v3.799l-2.764,3.107
		v2.934l1.211,3.108l0.173,0.172l-1.901,2.938l-1.208,2.761v0.174l-2.587,2.589l-4.317,9.84l0.174,5.35l-0.174,0.176l-9.323,5.35
		l-0.518,1.037l1.208,2.764v0.175v0.171l-0.864,3.624l-3.797-0.517l-0.862,4.662h-4.836l-1.037,1.727l0,0l-1.378,2.934
		l-0.864,10.879l1.036,2.242l0.174,0.348v2.242l2.069,2.592l0.174,0.345v2.069l5.524-0.342l0.344-0.519v-0.174h0.176v-0.171
		l1.551-2.073l-3.449-3.106l-0.35-0.344l-1.896-1.559l-0.172-0.17l-0.175-0.175v-3.454h2.937l0.343-1.203l-1.206-3.455h6.734
		l11.912-5.702l1.553-2.585l0.345-0.865l2.417,1.037h0.177l0.169,0.519l1.037,1.207l1.21-0.169l-0.346-2.594h3.972l3.797,0.689
		l1.554-2.584l0.173-0.177v-0.173l0.346-0.17l4.142-1.213l0.692-6.039l4.315,3.799l1.728,0.346l0.861-1.035l-0.519-13.123v-0.346
		v-0.69l2.936,0.519h0.174l0.347,0.174l0.175,0.17l4.658,8.457l5.867-0.687l1.036-0.344l0.864-2.073l-1.727-1.382l-0.519-0.689
		l3.971-1.38l0.347-0.176l0.175-0.174l1.553,1.729l1.38-0.693v-2.588l0.863-0.172h2.937c2.07,0.172,3.627,1.209,4.833,2.76
		l0.345,0.693l1.208-4.145c0.69-1.034,2.072-1.21,4.146-0.346l0.344,0.172v0.174l0.173,0.172c0.174,0.171,0.519,0.347,0.689,0.347
		c0.863-0.347,3.975-2.418,8.979-6.386C321.978,493.155,323.357,491.775,325.604,491.085z"/>
	<path opacity="0.5" fill="#41A47B" enable-background="new    " d="M367.921,364c-1.897,0.861-3.447,1.552-4.653,1.723
		c-1.035,0-2.759-0.345-5.166-1.205L354.136,364c-1.206,0.518-2.582,2.238-4.479,5.168l2.582,5.512l-4.308,2.412h-0.171
		l-3.443-1.031c1.379,2.582,1.721,4.133,1.207,4.823l-0.347,1.377c-0.86,2.066-1.553,3.276-2.239,3.962l-6.03,5.342l1.549,0.862
		l-1.032,0.862c-1.377,1.204-1.721,2.581-1.033,3.615l4.139,6.373h0.168v0.173l1.898,3.446v0.172l0.17,0.171l-0.17,0.347v0.345
		v0.171l-0.346,0.345c0.86,0,1.548,0.344,2.411,0.861c1.376,0.863,2.411,3.275,2.927,6.893l0.691,3.444
		c0.343,0.86,0.689,1.377,1.55,1.721c1.377,0.691,3.1,0.518,4.649-0.517c0.861-0.515,1.381-1.032,1.205-1.548l-0.17-0.173v-0.346
		l2.93-2.068l0.343,0.349l2.239,3.786c0.86,0.689,1.724,1.033,3.103,1.033l0.859-0.169l0,0l-0.689-2.068l3.275,1.377h0.86h0.172
		l0.174,0.344l3.1,2.412l0.862-1.379l-0.173-5.854l0.173-0.174l0,0l2.066-2.585c0.174-0.342,0-1.033-0.862-1.894l-0.517-0.518
		l0.344-0.343l0.173-0.346l0.517-0.172l4.309-7.063l0.347,0.173l0.859,0.173l0.344,0.171v0.344l-0.344,2.758h0.344l4.824-4.306
		l-0.346-2.239h-0.859l-1.725,0.168l2.93-7.922l-2.582-0.343l0,0h-0.348v-0.347l-0.858-1.03c-0.519-1.036-0.519-1.896,0.17-2.758
		l4.136-0.174h2.585c0-0.86-0.519-2.412-2.065-4.995l-3.618-1.207l3.787-3.618v-0.86l-1.893,0.348h-0.691v-0.176l-0.17-0.172
		l-0.174-0.346c-0.52-1.723-1.55-3.1-3.103-3.616l-6.891,0.171l-2.93,3.445v0.174l-0.859-0.174l-10.854-3.445l10.509-2.752
		c0.688,0,2.408-1.727,5.341-5.172l-3.618-2.584L367.921,364z"/>
	<path opacity="0.5" fill="#41A47B" enable-background="new    " d="M367.684,254.099l-0.342,0.171c0,0.858-0.515,1.372-1.373,1.372
		l-6.688-0.686c-4.631-0.857-7.717-1.543-9.261-2.402l-9.433,8.92l0.345,3.771v0.342l-0.856,0.172
		c-7.377,1.029-11.319,0.345-11.836-2.059l-0.855-10.631l-8.572-0.517l-3.602,7.547l-0.346-3.258
		c-0.17-2.573-0.685-4.117-1.201-4.459l-3.771,1.886l-1.714,2.229l-0.174,0.172h-0.171l-3.429,1.201
		c-3.77,3.087-7.032,6.344-9.945,9.773l-9.092,12.348l1.891,4.285v0.688l0,0l-0.175,0.172c-0.685,1.027-0.34,2.57,0.688,4.286
		c1.197,2.229,2.055,4.63,2.055,7.374v0.515l-7.372,4.288v1.717l3.431,1.541c0.343,0.172,0.515,0.518,0.515,0.688v0.34
		c-0.172,0.859,1.197,2.062,3.771,3.263l6.347,1.713l1.887-1.199l2.06-2.916l1.716-4.977l4.971,1.889l0.686,0.518v0.34l0,0v0.174
		c-0.856,2.058-0.342,3.429,1.2,4.287l5.488,0.172c1.886-0.344,3.429-1.03,4.457-1.889c0.688-0.854,1.716-1.027,3.258-0.854
		c1.888,0.342,3.604,1.026,4.804,2.571l1.198-2.916l0.345-0.514h0.173c0.856-0.518,1.371-1.371,2.057-2.574
		c0.517-1.203,1.371-2.402,2.745-3.259l2.398-1.371l0.172-0.175l0.171,0.175h0.172l1.373,0.343l0,0l0.343,0.172l1.889-8.574v-0.172
		l2.742-0.516c2.743-1.888,4.117-3.431,3.943-4.802l-0.515-2.572c-0.687-1.715-0.687-2.916-0.342-3.43
		c0.513-0.514,0.855-0.687,1.369-0.687c1.203,0,2.574,0.345,3.946,1.028l0.343-2.743v-0.343l0.17-0.172l2.916-1.37l0.344-1.545
		h-1.714l-0.343-0.173l0.168-0.855v-0.515l0.175-0.342h0.513h0.343c1.203,0,2.574-0.688,4.116-2.061l10.806-7.716h0.342l3.429,1.543
		l1.373-0.17l-0.857-3.603v-0.342l0.175-0.174l0.17-0.17l1.885-3.086l-0.513-0.344l-1.202,0.344v0.17h-0.17l-3.431,0.515h-0.857
		h-0.17v-0.17l-0.172-0.515l-0.688-1.201h-0.688V254.099z"/>
	<path opacity="0.5" fill="#41A47B" enable-background="new    " d="M358.085,319.128c-1.887-1.545-3.432-4.287-4.977-8.572
		c-4.969,0-7.882-0.855-9.254-2.573c-1.03-1.539-3.087-2.567-6.002-3.427l-0.858-0.172l0.858-2.917l-0.516-0.343l-0.857-0.172
		c-2.058,1.028-3.428,2.059-3.942,3.432c-0.685,1.37-1.543,2.572-2.571,3.429c-0.857,2.744-1.717,4.115-2.571,4.115
		c-0.516,0.17-0.858-0.172-1.198-0.687l-1.375-1.2c-1.026-0.514-2.055-1.028-2.913-1.028l-1.712,0.343
		c-1.202,1.2-2.917,2.059-5.487,2.4l-6.517-0.343c-2.058-1.027-2.915-3.087-2.398-5.659l-2.399-0.854l-1.198,3.427l0,0v0.173
		l-0.175,0.172l-0.513,0.684l1.54,0.346h0.346l0.17,0.172v0.17c2.915,3.943,5.144,6.514,6.344,7.202
		c0.688,0.34,2.745,1.028,6.342,2.055l6.174,2.229c1.888,0.857,3.773,4.629,5.827,11.318c2.745,1.883,4.46,2.741,5.662,2.568
		c1.198-0.51,3.255-1.712,6.172-3.6l0.168-0.172l0.175-0.172l0.343,0.172l3.087,0.688h0.342v0.516l-0.172,0.514
		c-1.028,4.111-1.885,6.516-2.573,7.201l-4.113,0.17v0.175c0,1.71-1.199,4.282-3.427,7.54c-0.686,1.027-0.857,1.887-0.857,2.399
		l3.94,2.741c1.028,1.202,1.715,1.547,2.573,1.547h0.857l0.855,2.912l1.885,0.688l1.03-1.027c0.514-0.516,1.198-0.86,1.715-0.688
		c1.712,0,3.084,1.027,4.799,3.256l0,0l1.543,2.063l0.173-0.175c1.027-0.687,2.917-0.515,5.659,0.343l4.455,1.027l4.117-1.37
		l1.712-0.86l1.2-0.854l-1.027-1.201c-0.343-0.686,0-1.54,0.855-2.4c1.028-0.855,1.713-1.712,1.713-2.742v-2.057
		c-0.338-1.027-0.166-1.715,0.174-2.057c0.345-0.688,1.543-1.03,2.915-1.37c2.229-0.345,4.973,0.684,8.229,3.427l-1.198-3.427
		l-1.887-2.573l-0.343-3.089l-2.915-0.515h-0.172v-0.168l0,0l0,0l-7.715-4.459l-3.772-0.688v-0.854l-0.173-3.945
		C361.682,325.13,359.627,320.67,358.085,319.128z"/>
	<path opacity="0.5" fill="#41A47B" enable-background="new    " d="M468.035,82.25l-2.587-16.891l0.175-0.344h0.172
		c1.209-1.896,1.895-3.446,1.551-4.652l-0.688-1.034c-1.898-1.207-2.761-3.964-2.242-8.618h-1.552
		c-1.209-0.172-2.586,0.346-3.963,1.208c-1.381,1.034-2.243,2.24-2.414,3.102c-0.688,2.068-2.928,3.446-6.723,4.654l-0.86,5.342
		v0.172l-0.173,0.171l-1.896,3.447l-0.17,0.347h-0.177h-0.171l-17.063,3.101h-0.172h-0.516V71.91l-4.998-5.343l1.551-1.551
		l-1.897-2.585l-2.411-1.722l-0.173-0.173h-0.175v-0.173V60.19l-0.858-4.651l-4.482,0.344l-0.345-0.344l-3.791-2.241l-13.614-2.414
		L386,50.367l-0.344,0.344c-0.52,0-0.863-0.172-1.036-0.516l-6.55-14.821c-0.688-1.207-3.444-4.998-8.959-11.548
		c-5.171-6.375-8.104-9.823-8.964-10.511l-9.65-9.48l-1.551-0.861l-12.064-0.173h-0.175l-0.342-0.345
		c-1.206-0.861-2.93-1.724-5.516-2.24c-2.238-0.861-7.411,0.862-15.511,5.17l-0.343,0.173l0.343,2.412h0.171v0.172h-0.171v0.345
		l-1.379,2.757v0.173h-0.171l-0.174,1.896c0,1.55,0.345,3.273,0.861,4.652l1.206,0.861l2.587-0.173l2.239,0.517l0.86-0.688
		c0-1.553,0.521-2.757,1.206-3.104h1.724l6.033,1.724l1.378,0.173l-1.896,3.274v3.964c0,0.863,1.553,2.931,4.652,5.86
		c1.896,1.377,3.104,2.067,4.139,2.24l0.858-0.173l0.861-0.344l2.933-2.93l2.24-1.38v-0.173l0,0l4.653-0.688l1.377-2.93l4.137-2.413
		l3.62,2.07v0.17l0.344,0.172l3.446,5.86l1.379,3.965v0.516l-0.689,4.827l1.379,3.273v0.517l-1.031,3.792v3.447
		c1.031,3.103,1.551,5.17,1.551,5.688l-0.347,2.93l0,0v0.173l-1.724,2.411v0.173l0,0l0,0l-1.724,2.068l-0.173,3.792l1.033,3.963l0,0
		l0.171,0.173l-0.171,0.171l0,0l-1.033,6.032l-0.863,0.863c-0.688,0.516-1.548,0.516-2.584,0h-0.341l-1.551-1.725l-1.727,0.517
		l-2.239,2.413l-2.413,7.066v0.172l-0.173,0.171l-2.411,2.068h-0.348l-1.38,0.173l-2.754,3.963l1.377,2.586l0.346,0.344l3.445,4.308
		v0.173v1.379l3.793,0.518l0.688,3.447v0.172l0.517,4.135l1.036,0.863l3.447-1.035l3.271-1.895l0.521-0.346l1.204,5.861l1.555,2.239
		l0.343,0.173l1.208,2.413l2.586,2.067c0.342,0.518,1.202,0.518,2.063,0.518l0.864,0.173l1.554-0.689
		c1.204-0.517,2.41-1.034,3.788-1.207l1.032-0.517l2.413-0.173c0.863,0,1.21,0.173,1.726,0.69l3.445-2.24h0.347l0.343,0.173
		l0.175-0.173l0.344,0.345c1.379,1.552,2.069,2.929,2.069,3.619l1.552,2.585l1.202,0.346h0.174h0.177l-0.351-0.346
		c-0.17-0.861-0.17-1.379,0-1.724c0.351-0.517,1.036-0.861,2.07-0.861l6.377-0.173l0.173-0.172h0.342v0.345h0.348l1.896,3.62
		l-0.173,1.896h-0.169l2.411,0.514h0.173c-0.173-0.514-0.173-0.859,0.172-1.204l0.86-0.173l5.688,3.964
		c0.519,0.517,0.861,1.206,1.034,2.067l0.171,2.413l1.896,0.347l1.203-2.068c-0.516-1.035-0.859-2.069-0.685-2.759
		c0.169-0.69,0.344-1.206,1.031-1.552l0.519-0.516c0-0.346,0.173-0.52,0.516-0.689l1.551,0.17c0.863,0.52,1.555,2.242,1.896,5.171
		v0.347l0.348,0.172c0.171,0.69,1.205,1.205,2.759,1.725h0.169l0.174,0.17l5.516,5.688l0,0l2.586-0.86l-0.348-0.863
		c-0.688-0.86-0.859-1.722-0.859-2.24c0-1.206,0.859-2.413,2.586-3.618l2.931-2.586l3.444,2.414h0.689l0.689-3.794v-0.688
		l0.689-0.172l2.756,0.346c0.518,0.515,0.861,1.033,0.861,1.895c0,0.689-0.518,1.551-1.035,2.242l0.519,0.344
		c1.728,0.861,3.104,1.551,4.138,1.725h0.17l0,0l2.243,1.204l1.724-0.173l-2.584-12.579c-1.726-1.035-3.276-3.103-4.826-5.516
		c-1.207-2.068-0.518-4.999,2.24-8.445c1.549-1.722,3.446-3.447,5.517-5.17l0,0l0.173-0.344h2.411l0.173,0.344l2.066,0.862h4.309
		c1.725-0.862,3.273-3.446,4.997-7.583C468.724,95.003,468.724,90.006,468.035,82.25z"/>
	<path opacity="0.5" fill="#41A47B" enable-background="new    " d="M362.548,33.89l-1.209-3.81l-3.118-5.367l-2.597-1.387
		l-2.599,1.387l-1.561,3.116l-0.174,0.348h-0.345h-0.173l-4.849,0.865c-0.521,0.347-1.04,0.519-1.386,1.039l-1.042,1.212
		l-2.599,2.08l-0.693,0.346l-2.249,0.345c-1.041-0.173-2.598-1.039-4.677-2.597l-0.174-0.174c-3.465-3.464-5.196-5.888-5.196-7.273
		v-4.503v-0.173V19.17l0.521-0.865l-5.021-1.733l-0.175,1.733c0,0.52-0.521,1.212-1.385,1.731l-1.733,0.692l-0.69-0.173v-0.172
		l-2.599-0.52l0.521,1.906l-4.502-2.945h-0.178l-0.171-0.174l0,0c-0.692-1.905-1.039-3.811-1.039-5.887
		c0-1.733,0.173-2.771,0.862-3.464l1.043-1.905l-0.346-1.559l-4.505,0.691c-2.253,0.174-3.811,1.561-4.678,4.158v0.174l0,0
		l-2.599,3.982l2.599-0.172h0.174l0.176-0.173l0.173,0.345l2.076,0.867h0.347l0.346,0.173v0.519l0.35,3.638l1.038,3.463v0.174v0.174
		v0.173l-5.718,11.257c-1.035,1.56-1.559,5.716-1.901,11.951v0.519l-2.254,4.33l1.561,1.732v0.346c0.173,2.599,0,4.157-0.694,4.505
		l-0.521,0.171c-1.209,0.693-5.193,4.85-11.602,12.644l-0.518,0.52l-0.349-0.174l-0.52-0.346c-2.255-1.558-4.332-2.944-5.545-4.329
		c-1.038-0.693-3.638-1.214-7.965-1.214l-0.175,7.967l-0.172,0.175l-3.116,15.066c-0.695,1.907-0.87,5.37-0.87,10.566l1.213,1.559
		l1.041-2.078h0.175l0.173-0.347l3.98-2.078l11.084,1.731l1.215-1.386l1.558-2.771l0.346-0.172l0,0l0.176-0.174l4.326-0.866
		l5.72-0.347c1.731,0.347,3.809,2.597,6.405,6.062c6.93,3.464,10.737,6.582,11.607,9.352c0.518,1.385,0.518,2.425,0,3.637
		c-0.523,1.212-1.734,1.906-3.468,2.079h-0.171c-8.488-0.346-13.337-0.346-15.068,0.173l-4.157,2.77
		c-5.194,3.811-8.656,5.716-10.565,5.716l-3.46,0.519l-2.079,8.661c-0.519,2.597-1.389,4.329-2.947,5.542
		c-1.387,1.385-3.464,2.251-6.23,2.771c-3.295,0.52-6.063,1.732-8.663,3.291l-2.942,6.234l-0.173,0.173h-0.174h-0.171l-7.968,3.291
		h-0.522l-3.981-0.866c-3.119-0.52-5.542-1.385-7.104-2.425c-2.077-1.038-4.329-1.212-6.753-0.52
		c-2.079,2.943-3.117,6.581-2.942,10.564c0.172,2.076,0.689,3.463,1.211,3.81l1.209-0.171l1.391-0.867l0.345,5.542
		c0,1.906-0.692,3.29-2.081,4.33c-0.862,0.69-2.422,1.388-4.674,2.079l-1.384,0.345c-1.731,0.693-5.373,5.371-10.74,13.856v0.174
		h-0.171l-5.197,3.116c0.866,0,1.389,0.348,1.216,1.041c-0.176,0.693-0.693,0.865-2.082,1.039l-14.72-0.346
		c-16.459-0.52-29.272,3.982-38.455,13.334l-0.171,0.174l-0.349,0.174h-0.172l-6.062,0.691l-0.348,0.174h-0.346l-1.731-4.155
		l-6.235,1.558c-3.292,0.175-7.62-0.693-12.472-3.118c-4.502-1.903-8.486-4.503-12.469-7.621c-2.599-2.075-5.889-3.464-9.699-4.155
		l-5.543-0.519l-6.235,0.864c-4.502,0.693-9.005,0.693-13.162,0.346c-5.021-0.346-11.083-1.729-18.357-3.984l-0.521,1.042h0.175
		h0.174l0.174,0.172v0.174l0.172,1.731l1.561,3.291l3.636,4.502l0.174,0.521L65,202.237v0.173h-0.174l-2.077,2.771L65,207.433
		c0.867,0.865,1.387,1.559,1.387,2.252l0.52,3.29l2.597,2.597v0.348l0.347,2.252v1.731l1.56,1.212l1.04-0.348l0.174-0.52
		c0.52-1.383,1.385-2.076,2.598-2.25l1.387-0.521l9.179-0.864l3.639-1.387l0.346-0.174l0.52-0.346l1.906,4.158h0.172l0,0
		c0.174,1.038,0,1.902-0.519,2.77l-5.023,7.104l0.346,1.21l2.254,2.252l2.25,1.387h0.174c1.039,1.386,1.904,2.251,2.943,2.599
		c1.214,0.345,2.426,1.384,3.465,2.769l0.174,0.521l1.73,0.693l0.52,0.174h0.175l0.52,1.903l0,0l0.175,1.905l0.69,2.771l4.329,0.693
		h0.348l0.175,0.174v0.172l0.172,0.346l1.212,2.424l3.464,1.214l2.425-1.214l-0.348-1.386l-2.251-2.077l0.348-0.346v-0.348
		l1.904-3.635h4.158l0.173,0.173l5.887,2.078l3.292-0.521l2.597-2.425c2.945-3.638,4.852-5.196,6.063-4.329l1.384-0.173
		c1.562,0,2.425,0.173,2.945,0.345c0.174,0.348,0.347,0.693,0.347,1.039c0,0.693,0.693,2.08,1.735,3.985v0.172v0.174l0.516,2.425
		v0.518l-0.69,2.773l0,0v0.171l-0.176,0.174l-2.944,3.465l-0.171,0.173l0,0l-6.237,2.771l-0.865,1.732l-0.867,5.021l0.521,2.425
		l1.558,2.601l0.693,0.519l2.078,1.386h7.274l6.063-0.866l0.865-0.867c0.866-1.04,1.731-1.386,2.249-1.386l4.157,0.691l0.346-0.691
		c-0.346-1.211-0.346-2.25,0.349-3.291l1.731-2.942v-5.544v-0.174l3.117-9.006l0.175-0.174v-0.171h0.172v-0.175l5.369-4.328
		l0.347-0.346l4.677,2.075l0,0c2.425,1.733,3.637,3.118,3.637,3.983l-0.345,3.812l-1.561,2.425l-1.213,3.465v3.809l1.213,1.732
		l1.561-0.174l0.345-0.172l2.601,0.172c1.387,0.694,2.253,1.906,2.944,3.638l1.557,0.52h0.176l0,0h0.174l5.887,2.771l2.599,0.867
		l3.639-0.519l1.561-2.081l2.076-8.484l0.173-4.678v-0.346l0.348-0.173l0.176-0.175l3.289-2.768l1.902-2.426l0.174-0.174
		l3.465-1.559l2.077-1.213l2.596-1.041l-1.381-5.193l5.887,0.691l0,0v0.174l0,0l3.118,1.213l0,0v-0.172l0.866-3.293v-0.52
		l0.521,0.174h0.347l2.771,0.69h1.388l2.594-2.94h0.174l0.174-0.174h0.176l3.463-0.693l2.947-2.771l1.56-2.25v-2.772
		c0-1.04,0.514-1.731,1.556-2.251l0,0h0.347h0.171l3.295,0.346l1.387-0.867l0.52-2.424l3.461-1.037h0.174h0.177l0,0l4.328,0.52
		l3.465-0.867l2.077-2.077l1.388-2.771l-2.603-2.771v-0.173l0,0l-0.518-2.077l0,0l-0.692-3.119v-0.174l1.559-2.771
		c0-0.865,0.52-2.077,1.906-3.464l1.902-3.809v-0.175h0.176l1.73-2.771l2.599-5.196l2.423,3.464l0.173,0.172v0.174l0.868,3.464
		v0.175l0.52,3.463l2.426,1.039h0.171l0,0l0,0l0.693,0.348l0.173-0.174l2.078-3.638l1.217-3.462l0.52,0.172l0.518,0.174l5.021,1.729
		l2.426-1.903l0.174-0.172h0.347l2.426-0.174l1.731-2.944v-3.638l1.21-5.542l0.349,0.172h0.521l3.81,0.866l1.732-3.117h0.171h0.346
		l3.469-0.347h0.518v0.172l0.346,0.175l1.732,2.424v0.175l0.176,0.174v0.345l0.343,3.465l1.732,1.558l2.427-2.251l0.519,0.693
		c0.867,0.867,1.214,1.732,1.214,2.771v3.116l-1.214,3.119l0.867,1.387l1.732,1.902l7.271,1.039l0.176,0.174l0,0l0.349,0.174l0,0
		l0.518,0.52l2.077-2.944h0.175l1.732-1.73l-0.694-2.601l-1.903-11.084l5.021,2.426h0.173h0.172l2.253,2.771l1.387,1.383
		l2.077-1.383l7.272-7.968l0,0h0.177l2.597-1.905l2.944-4.155l0.171-0.348l3.985,1.038h1.905c0-1.558,0.346-2.596,0.519-3.289
		l2.944-3.465l0.867-0.521l3.463,1.213l4.155-0.52l2.773-2.945l1.384-2.598l-0.864-1.387l-2.426,1.215l-0.174-0.174l-0.174-0.174
		l-3.119-2.771l-0.172-0.172l1.214-4.676l0.347-3.466l-0.869-2.942l-2.422-0.867v-0.172l-0.175-0.175l-0.172-0.173l-2.079-4.156
		l-0.346-0.521l-2.944,3.462l-2.944,1.906l-0.691,0.349l-0.173-0.174l-0.175-0.348l-3.115-2.944v-0.173l-2.252-4.85v-0.172
		l-1.04-3.465v-0.174l0,0v-5.196l-0.347-3.116l-2.426-0.866h-0.171v-0.175l-5.545-4.328l0.35-0.52l2.596-2.772v-0.173v-0.173h0.345
		l0,0l2.946-0.347h0.174c0.867,0,1.731,0.52,2.424,1.384l2.425,1.906l2.602-2.078l1.901-2.598v-2.251l-0.69-5.543l-0.521-2.25
		l-3.812-0.693v-2.251l-3.462-4.331l-0.176-0.172l-1.732-3.118l-0.346-0.345v-0.347l0,0l3.811-5.023v-0.172l0.177-0.173v-0.174
		h0.346l1.555-0.174l1.906-1.559l2.254-6.929h0.173v-0.172l2.771-3.117v-0.174h0.172h0.172l3.12-0.865v0.346l2.078,1.732
		l0.691,0.174l1.211-5.37l-1.211-3.81l-0.173-0.174v-0.347l0.52-4.331v-0.345l2.075-2.252l1.388-2.425l0.173-2.078
		c0-1.04-0.521-2.771-1.561-5.371l0,0l0,0v-4.156v-0.173l0.869-3.636c-0.69-1.559-1.214-2.772-1.214-3.638L362.548,33.89z"/>
	<path opacity="0.5" fill="#41A47B" enable-background="new    " d="M360.396,114.715l-0.686-3.601l-1.712,1.029h-0.174
		l-4.113,1.543l-0.174-0.345l-0.685-0.171v1.887l-0.172,0.171l-2.057,3.085h-0.17v0.172h-0.172l-3.088,2.569h-0.342v0.343
		l-0.515-0.343c-2.056-0.856-3.429-1.885-3.771-2.743c-0.342-0.343-0.515-0.343-0.858-0.514l-2.229,0.343l-1.374,1.371l3.603,3.085
		l2.915,1.199l0.172,0.172h0.17l0.174,0.344v0.171l0.516,3.43h0.166v5.313l0.688,3.087l2.06,4.8l2.398,2.228l1.886-1.37l1.373-1.716
		v-0.171h0.169l2.403-2.913l2.057,1.885v0.17l0,0l0,0v0.172l2.056,3.943l2.572,1.027l1.371,4.117v0.17v0.172l-0.172,3.771v0.172
		h-0.169l-1.03,3.428l1.887,1.715l2.056-1.028l2.059-2.058l0.514,0.342l1.715,0.516l0,0l0,0l2.057,1.885l2.229-0.515
		c1.718-0.516,2.572,0,3.089,1.199v1.543l0.34,0.172l2.399,0.687l1.029-2.229v-0.856c0-0.686,0.172-1.371,0.687-1.541l1.372,0.17
		c1.886,0.856,2.744,2.057,2.744,3.43l-0.175,1.199v2.057l1.89,2.744l2.227,2.397c0.687,0.86,1.543,1.202,2.398,1.544h0.343
		c0.515,0.344,0.858,1.201,0.858,3.085v7.716c0.342,0.686,0.856,1.2,1.371,1.371h0.344c1.027-0.516,1.714-0.344,2.567,0.513
		l0.517,0.344c0.858,0.173,1.542,0.858,1.714,2.229l0.345,4.285l3.942-8.058c1.199-4.287,2.57-6.856,4.455-7.199
		c1.544-0.514,3.943,0.342,7.031,2.057l11.144,0.855l0.34-2.4l-5.142-4.971c-2.399-1.372-3.432-2.398-3.084-3.084l3.938,0.172
		c3.602,1.198,7.029-0.857,10.287-6.688l0,0h0.172l3.771-3.6l0.515-7.885v-0.858h0.517h0.342l2.914-0.685h0.515l0.342,0.171v0.171
		l6.002,6.344l1.716-0.686l0.341-1.029l-3.258-3.086l-0.516-0.342l-0.34-0.516l4.969-2.912l-0.34-7.201l-2.06,0.344l0,0h-0.172
		l-2.739-1.373c-1.029-0.17-2.402-0.857-4.46-2.057c-1.026-0.515-1.711-1.027-1.711-1.715v0.171c0,0.688-0.174,1.029-0.517,1.199
		c-0.518,0.345-1.2,0.516-2.399,0.516h-0.173l-0.168-0.171h-0.174l-2.401-1.715l-2.056,1.715c-1.028,0.856-1.715,1.542-1.715,2.229
		l1.025,2.229c0.514,0.688,0.514,1.028,0.344,1.542c-0.344,0.517-1.199,1.03-2.398,1.2l-1.029,0.515
		c-1.197,0.343-2.228,0.172-2.912-0.685l-0.341-0.515l-4.46-4.628c-2.057-0.688-3.257-1.544-3.771-2.572
		c-0.345-0.514-0.517-1.028-0.345-1.373c-0.172-1.541-0.512-2.57-0.854-3.084l-0.859,0.514l-0.171,0.344
		c0,0.514,0.171,1.029,0.688,1.713l0.17,0.344l0.173,0.17l-0.173,0.345l-2.397,3.942l-3.943-0.857l-0.856-0.514l0,0v-0.515
		c0.339-0.687,0.339-1.542,0-2.401l-0.518-1.369L406,128.771l-0.171-0.171c-0.345,0.515-0.687,0.515-1.026,0.687l-3.09-0.342
		c-1.028-0.173-1.714-0.344-2.056-1.028c-0.175-0.344-0.175-1.028,0.171-1.886l0.171-0.517l-1.37-2.398l-6.001,0.343
		c0.172,0.857,0,1.371-0.342,2.057c-0.172,0.517-0.855,0.688-1.37,0.688c-0.857,0.343-1.89,0-2.745-0.856v-0.172h-0.172
		c-1.369-1.543-1.886-2.743-1.886-3.772l-1.198-1.714l-1.715,1.2c-1.542,0.856-2.57,0.856-3.087,0.171l-0.687-0.171l-1.711,0.171
		l-4.63,1.543c-1.029,0.686-1.887,0.857-2.569,0.857h-0.518c-1.714,0-2.744-0.516-3.429-1.2l-2.747-2.229L360.396,114.715z"/>
	<path opacity="0.5" fill="#41A47B" enable-background="new    " d="M291.771,211.062l-0.355,0.531l-0.529-0.178l-2.3-0.354
		l-0.179,1.063v0.53h-0.53l-3.718,1.415l-0.176,0.53c-0.532,1.241,0,2.302,1.24,3.718l0.351,0.354l-0.351,0.533
		c-1.064,1.77-2.656,3.537-4.428,4.777c-0.708,0.531-0.884,1.063-0.884,1.595l1.236,1.592l1.946,0.708l1.594,0.179
		c2.124,0,3.541,0.178,4.074,1.063l1.767,1.236c1.24,0.533,2.301,0.887,3.188,0.887c0.706,0,1.594-0.531,2.304-1.947l1.414-1.593
		l1.061-3.362l-0.885-3.896l1.415,0.355l2.306,0.177l1.059-0.709l0.354-0.885l-1.77-5.133l0.529-1.771
		c0.535-1.062,1.239-1.415,1.948-1.593h0.178l-0.355-1.239l-4.248,0.179v-0.179l-3.891-2.653c-1.597-1.064-3.188-1.242-4.605-0.887
		l-0.529,0.354c-0.353,0.709,0,1.416,1.063,1.77C291.948,208.937,292.304,209.823,291.771,211.062z"/>
	<path opacity="0.5" fill="#41A47B" enable-background="new    " d="M356.522,166.621l-2.06,2.745
		c-0.342,0.512-0.514,1.542-0.172,3.256v1.028h-4.111h-0.173l0,0l-2.915-0.856l-2.229,3.428l-0.343,0.344l-2.744,1.715l-2.397,2.57
		l0,0l-0.345,0.514l0,0l-4.284,4.971v0.172h-0.173l-3.257,1.715l-2.572-1.715v-0.172l0,0l0,0l-2.396-2.57l-1.545-0.855l1.199,7.027
		l1.028,3.771l-2.57,2.4l-3.602,5.315v2.228l-0.169,0.173h-0.17l-0.858,1.37l0.685,1.2h1.373l4.973,1.372h0.168h0.172v0.173h0.172
		l1.03,1.028l1.371,0.684l0,0h0.344v0.172c0.512,0.687,0.855,1.372,0.855,2.059l0.514,1.542l5.313,1.542l1.545-0.342l1.54-2.059
		l4.116-7.886h0.17v-0.169l1.888-2.572l0.169-0.173l3.259-1.542l2.231-0.17c0.854-1.372,1.543-2.059,2.397-2.059
		c0.514,0,1.37,0.342,2.744,1.028l0.343,0.171v0.173l2.915,4.457v0.17h0.171v0.344l0.341,3.257l-0.174,3.601l0,0l-0.854,3.085l0,0
		v0.344h-0.17l-2.229,2.742l-1.031,2.229l0.176,3.771h0.342l1.198-0.515l1.371-1.198l0.343-0.344l0.172-0.346l1.715,1.545v0.171
		v2.741h-0.172l-1.543,0.688l-0.515,0.688v1.54l-0.172,0.173l0,0l-1.025,1.886h-0.174l-0.341,0.17l-1.375,0.173l-1.368,0.344
		l-1.028,1.885l0.17,0.344l5.656-0.686l1.028-0.859l1.884-4.969l0,0l12.687-13.03h0.347l2.744-1.372l0.169-0.17v0.17h2.23
		l2.226-0.512l2.399-1.03l1.713-1.884l2.745-7.544l0,0v-0.173l10.629-11.141v-0.173l-0.687-5.999
		c-0.514-0.172-1.198-0.516-1.545-1.028l-0.341-0.345v0.174l-1.715,0.171c-0.855-0.345-1.374-0.688-2.059-1.544l-0.513-1.028v-0.171
		l-0.172-0.172v-9.257c-1.028-0.345-2.059-1.028-3.257-2.229l-2.228-2.401l-2.06-2.914c-0.343-0.684-0.343-1.713-0.173-3.256
		l0.173-0.857l-1.2-1.543l-0.173,1.371l-1.542,2.915h-0.514c-1.2,0-2.571-0.173-3.603-0.688c-1.024-0.342-1.542-1.199-1.542-2.229
		v-0.686h-0.854l-3.257,0.856l-2.4-2.4l-0.861-0.172l-0.854,0.858l1.029,1.714l0.342,0.515l-1.712,3.599h-0.174v0.172h-0.171
		l-3.084,3.43l-0.173,0.17h-0.345l-4.798,0.514L356.522,166.621z"/>
	<path opacity="0.5" fill="#41A47B" enable-background="new    " d="M328.444,212.625l-1.38-0.688l0,0h-0.174l-1.037-1.039
		l-4.837-1.381h-1.207l-0.864,0.346l-1.901-3.629l0.174-0.172l1.383-1.727v-2.072l0.174-0.347l0.859-1.381l-0.688-0.347
		l-2.591-0.518l0,0l-4.496-0.691h-0.339l-2.593-2.59v-0.174l-0.864-1.729l-0.175-0.519l1.383-3.628v-2.59l-0.17-0.691l-1.384,1.383
		l-0.175,0.171l-0.346,0.519l-0.346-0.519l-0.518-0.171l-2.591-2.075l-0.347-0.344v-0.344l-0.519-3.803l-1.206-1.9l-2.597,0.173
		l-1.552,2.765l-0.172,0.346l-0.177,0.172l-4.146-0.863l-0.689,3.799v3.803l-0.171,0.171l-2.245,3.455v0.347l-0.348,0.172h-0.173
		l-2.59,0.172l-2.593,2.073l-0.346,0.347l0,0h-0.347l-0.172-0.174l-4.837-1.554l-0.688,1.729v0.173l-2.077,3.455
		c-0.342,0.691-0.859,1.036-1.379,1.208l-2.073-0.346l-2.764-1.209l-0.52-0.345l-0.171-0.173v-0.174l-0.519-4.145l-0.866-3.109
		l-0.517-0.865l-1.211,2.419l0,0l0,0l-2.071,2.764l-1.727,3.975v0.171l0,0v0.174h-0.172l-1.558,2.246
		c0,0.69-0.521,1.727-1.556,3.281l1.035,3.973l5.186,5.703l0,0l1.729,3.625v0.345l-0.174,0.348h-0.174l-1.381,1.728l-0.348,0.345
		l-3.453,0.691l0.343,2.764l2.595,1.383l3.798,0.864l1.039,3.453l0,0l0,0v0.173v0.172l-0.864,5.873l0,0v0.174l-1.381,2.59v0.521
		h-0.348l-4.316,0.688v1.729l-1.209,3.802l-0.521,4.317l0.864,2.418l5.354,3.281l0.174,0.174l2.245,3.801v0.172l0.171,0.174
		l-0.171,0.172l-2.765,6.047l-0.692,1.727l0,0l-1.727,3.973l-0.692,3.109l-0.172,0.346v0.174c-0.861,0.688-1.384,1.381-1.727,2.417
		c-0.173,0.347-0.173,0.69,0.172,1.038l0.171,0.174l1.73,1.897l0,0l0,0l0.863,1.383l0.346-0.174l0,0l0.171,0.519v0.174v0.518l0,0
		v0.174l0,0l0,0l0.348,1.036l1.555,0.519l6.218,1.38c2.073,0,3.974-0.515,6.048-1.38c2.072-0.863,3.971-1.036,6.048-0.691
		l0.341-1.209l-2.069-4.665l-0.175-0.345h0.175l9.843-13.648l10.538-10.191h0.175l3.279-1.209l1.729-1.898v-0.174
		c1.383-1.035,2.592-1.729,3.977-2.245l-1.036-0.862l-2.249-2.246v-0.173h-0.17l-1.729-2.075l-0.176-0.345v-0.345l0.865-1.037
		l-2.246,0.519l-4.838-1.207c-1.901-0.865-3.107-1.9-3.453-3.11c-1.037-3.108-1.38-5.874-1.209-8.293
		c-0.69,0.865-1.555,1.038-2.418,1.038l-3.629-0.864l-2.417-1.728l-2.937-0.691h-1.386c-0.862,0-1.899-0.344-2.588-1.034
		c-1.035-0.693-1.558-1.384-1.729-2.074c-0.345-1.382,0-2.245,1.209-3.108c1.207-0.864,2.593-2.247,3.798-3.975
		c-1.205-1.554-1.728-3.107-1.205-4.664l0.172-0.172c0.171-0.864,1.558-1.556,4.146-2.418c0.175-0.865,0.52-1.383,0.863-1.555
		l2.59,0.172l-0.344-0.346c-1.729-1.035-2.246-2.244-1.38-3.627l1.38-1.037c1.554-0.518,3.455-0.344,5.353,0.691l3.978,2.764h3.625
		l1.21,1.037l0.344,1.383c0,0.862-0.518,1.38-1.207,1.38c-0.864,0-1.21,0.864-1.385,1.901l1.728,4.146
		c1.038-1.557,2.075-2.42,3.11-2.59c0.521,0,1.21,0.344,1.729,1.033c0.519,0.864,1.036,2.418,1.384,3.976
		c0.172,1.899,0.688,3.452,1.21,4.317l1.381,1.9c2.069,2.59,3.278,4.49,3.628,6.045l6.732-0.863l2.938-1.556l2.766-3.455
		l1.206-3.281v-0.174v-0.171l0.865-3.455v-0.173l0.171-0.345h0.176l2.592-1.729l0.517-0.344l-0.174-0.172L330,216.253h-0.344v-0.17
		l-0.864-2.594L328.444,212.625z"/>
	<path opacity="0.5" fill="#41A47B" enable-background="new    " d="M117.608,244.428h-2.781l-0.867,1.91l1.563,1.565v0.172v0.174
		l0.698,2.26l0.172,0.171v0.522l-0.348,0.176l-3.82,1.908l-0.177,0.175l0,0h-0.173h-0.174c-2.952-0.347-4.517-1.216-5.038-2.433
		l-1.042-2.084l-5.211-1.041L99.02,241.3c-1.042-0.175-1.91-0.696-2.43-1.389l-0.175-0.349c-0.871-1.215-1.565-1.912-2.607-2.084
		c-1.389-0.521-2.607-1.565-3.648-3.128l-2.084-1.217h-0.171l0,0l0,0l-2.781-2.778l0,0l-0.695-2.431v-0.175l5.561-7.645
		c0.172-0.52,0.346-0.867,0.172-1.041l-1.04-2.434l-2.953,1.217h-0.175v0.174h-0.174l-7.644,0.52l-2.952,0.697l-1.044,1.042
		l-0.521,1.042c-0.691,0.867-1.734,1.391-3.3,1.042l0,0l-0.172-0.175l-2.607-1.909l-0.172-4.345
		c-1.391-1.039-2.261-2.084-2.606-2.953l-0.695-3.821l-1.738-2.084l-1.91-1.564l-0.869-0.521l3.125-3.995l0.695-2.258l-3.475-4.342
		h-0.172v-0.175l-1.565-3.475v-0.174l0,0l-0.347-1.735l-2.262-1.736v-0.176l0,0l0,0l-2.43-2.604l-3.125-0.523l-3.474,1.041
		l-0.524,0.695l-0.521,4.865v5.387l-0.52,0.172l-3.302,1.217l0,0v0.174l0,0l-3.128,0.172c-1.563,0.87-3.3,1.737-5.209,2.434
		l-0.349,0.174l0,0h-0.173l-5.906-1.391l-2.433,2.605c-0.521,0.693-1.737,1.389-3.301,1.735l-3.649,2.955l-1.91,2.951v0.175
		l-0.173,0.175c-1.044,1.563-1.911,2.779-2.604,3.301l-2.086,2.606v0.173l-0.173,0.174l-1.216,0.867
		c-0.868,0.347-1.737,0.521-2.434,0.521l-4.341-0.348l-1.042,1.563L0,220.977l0.697,2.779l-0.349,6.774l1.216,2.084v0.175
		l0.521,1.563h2.432l4.169,0.87l5.387,0.347l2.433-0.347h0.347h0.174l4.692,1.736l0,0h0.171l2.433,1.912l5.211,1.91h0.174
		l3.476,2.082l8.512,7.816l3.821,1.74l1.562-0.696l1.565-2.951l-0.869-4.693c0-1.389,1.044-2.258,3.128-3.125l0.347-0.174
		l10.599,6.252l1.216-0.346l2.433-1.391h0.348l1.389,0.174l2.086-1.737l0.346-0.171l0.524,0.346l6.25,4.342l0.175,0.174l3.996,3.301
		c1.041,0.696,2.432,1.912,3.646,3.648l1.913,2.084l1.563-0.174l1.737-3.301l3.646,2.607h0.174h0.176l0,0l2.953,3.646l7.816,5.907
		l0,0l2.257,2.604l6.774-1.909l0.349,5.038l2.951,2.953l0,0v0.172l2.433,3.648v0.174v0.176v0.172l2.607,11.986l2.606,4.867
		l-3.474,8.86v0.52l-2.954,0.697v2.604l-0.175,0.176l-2.954,4.862h-0.347l-4.169,0.35l-4.17,3.474
		c0.521,0.522,1.217,0.867,2.433,1.389c1.737,0.521,1.909,1.914,1.042,4.345v0.171l-2.954,2.957h-0.174l-0.172,0.346h-0.175h-0.175
		l-8.338-1.215l-0.174,2.949l0.87,6.258l6.949,2.952v0.351l0,0l2.604-0.871l0.174-0.172l0.348-0.177l0.174,0.349h0.175l1.909,1.042
		h2.954l1.044-0.171l-1.044-3.303l0,0l0,0l-0.695-3.477v-0.172v-0.348l0.174-0.177v-0.173l1.042-1.216l0.349-0.347l0,0l0.175-0.172
		l1.91-2.605l0.172-0.175l3.13-2.437h0.171v-0.171h0.175l0,0l3.82-0.521v1.041c0,1.219,0.173,2.087,0.349,2.607l0.696,1.564
		l1.04,2.255l3.474,1.913l9.558,0.871h0.347h0.521v0.52v0.348l-0.349,3.127l2.78,2.953l2.086,0.869l0.344,0.172v0.178l0.178,0.345
		v1.214v1.739l-0.871,3.474l1.216,0.868c1.392-0.173,2.606-0.173,3.822,0.695l3.998,1.911l2.431-1.911l2.605-2.781l0.176-1.215
		l0.173-0.347l0.348-0.174l0.345-0.347v-0.351l-0.864-3.65l-0.176-1.907l-0.174-0.171v-0.178l0.174-0.174v-0.172l1.393-2.259
		l0.174-0.175l0,0l2.777-1.909h0.175h5.73l0.871-0.348l-0.176-2.956l-0.868-2.604l-1.915-3.129l-0.172-0.17v-0.177V320v-0.176l0,0
		l1.044-2.604l0,0l0.175-0.175l0,0l4.689-6.773l0.173-0.177h0.173l0.352-0.172h1.043l1.732,0.172l3.999,2.261l2.606,0.694
		l0.347-1.215l-0.522-0.349v-0.521c0-1.042,0.522-1.911,1.564-2.779l3.127-2.259l0.173-0.171l0,0v-0.178
		c1.74-0.521,2.781-0.865,3.478-0.865l2.779-0.349h0.35l0,0l1.733,0.349l1.22-4.345v-2.955c0-1.912,0-3.129,0.519-3.475l1.217-2.26
		l-1.563-2.085l-2.084-1.392l-4.344-1.214c-0.868,0-2.433-0.867-5.037-3.128l-2.607-1.214h-0.172l-0.175-0.174l-3.129-3.824h-2.954
		l-0.175-0.175h-0.174l-2.605-1.388l-1.563,2.084l-0.349,8.164l0.523,3.129h1.216l0.172,0.174l2.432,0.693v0.176v0.174l1.219,2.951
		h0.171v0.174l0,0v0.174l-0.69,5.39v0.346v0.174l-0.176,0.174c-0.868,0.521-1.562,0.869-2.431,1.392l-0.351,0.176l-0.174-0.176
		h-0.172l-1.216-0.349l-2.779,1.043h-0.173l0.173,0.521l0.173,0.175l0.521,4.691c0,0.691-0.345,1.042-1.043,1.216h-2.084
		c-1.042-0.174-1.563-0.522-2.085-1.045l-2.082-1.562l-0.175-0.172h-0.177v-0.176l-1.217-2.954
		c-0.345-0.348-1.211-0.868-2.951-1.391h-0.174h-0.176l-2.434-1.738h-0.344v-0.346l0,0l-0.694-2.955l0.349-2.258h0.174v-0.176l0,0
		l1.041-1.213v-0.871l-1.041-3.127l-2.434-2.258v-0.35l-0.698-7.121l-1.734-1.736H149.4l-0.172-0.175l0,0l-1.392-3.3l-6.256-0.695
		c-1.563-0.521-2.604-1.563-3.3-2.953H135.5c-1.04-0.348-2.083-1.043-3.298-2.259l-0.349-0.347
		c-0.693-0.695-1.391-1.737-2.085-3.128l0,0l-0.172-0.173l-0.521-2.778l0,0v-0.175v-0.174l0,0l1.042-5.387v-0.172l1.044-2.26v-0.172
		v-0.176h0.173l6.603-2.779l2.604-3.127l0.521-2.605l-0.347-1.908c-1.044-2.261-1.737-3.649-1.737-4.52l-1.392,0.175l-2.43-0.175
		c-0.523,0.175-1.912,1.738-3.823,3.996l-2.955,2.779h-0.172l-0.174,0.174c-2.258,0.521-3.821,0.869-4.69,0.521L117.608,244.428z"/>
	<path opacity="0.5" fill="#41A47B" enable-background="new    " d="M212.896,340.492l-0.173,0.688l0.861,1.039l4.493,3.108l0,0
		v0.17h0.169l2.766,3.112l-0.346,0.343l-1.729,2.071l-0.172,0.173l-0.173,0.346h-2.937l-1.73,0.174l-1.204,1.208l0.516,1.555v0.177
		l0.174,1.729l1.555,2.24v0.175v4.832l1.385,0.524l2.416,0.688h0.172l0,0l0.174,0.172l0.173,0.172l2.245,3.111v0.17l0,0l1.209,3.111
		v0.171l0,0v2.074c-0.176,1.207-0.517,2.241-0.862,2.937c-0.864,1.211-2.418,2.247-4.838,3.279l-5.872,3.458h-0.174l-10.707,0.688
		l-0.688,2.594l1.897,3.451v0.174v0.172l0.519,4.49l5.873,6.91h0.174l0,0v0.172l2.416,3.976l0.174-0.519v-0.175l1.899-5.352l0,0
		l0.174-0.179l0,0l3.454-4.487l0.174-0.172l4.315-2.07h0.346l2.766,1.726l3.627-0.345l-1.213-6.046l0.692-0.175l3.28-0.346
		l3.453,0.174h0.35v0.172l6.907,3.108l5.871,1.211h0.175l0,0h0.175l1.897,1.381l2.765,1.033v0.177l0,0l0,0l0,0l1.727,1.555
		l1.034,0.342l1.901-1.725v-0.172l2.938-2.247l1.553-2.938l2.766,1.555v0.174v0.172l0.689,2.245v0.519l-0.344,1.381l0.17,0.349
		l1.729-0.866l2.417-2.412h2.248v0.168h0.171l1.557,1.038c1.035,1.036,1.38,1.9,1.035,2.761l-0.172,3.803l1.033,1.898l0.347,0.174
		c4.146-4.492,6.908-6.734,8.638-6.734h4.661l1.038-2.246l3.625-1.727h0.177l4.49-0.349l4.663-2.416v-0.175h2.934l-0.52-1.381
		l0.177-0.344l0.688-0.692l-6.39-13.644v-0.349l-0.175-0.171l2.768-3.802l-0.861-0.864l-4.667-0.862h-0.518l0,0v-0.343l-2.938-3.111
		l0.172-0.691l-0.172,0.175l-0.173,0.17l-2.593-1.726c-1.207,1.556-2.416,2.591-3.797,2.936c-1.209,0.52-3.109-0.861-5.7-3.972
		l-1.383-1.73c-0.172-0.344-1.38,0-3.282,0.694c-2.937,1.036-4.833,1.21-5.696,0.689c-0.864-0.866-1.21-2.588-0.864-4.836
		c0.172-1.902,0-2.938-0.346-3.455l-22.452-1.209c-2.076-0.86-3.802-1.727-4.666-2.59l-3.454-0.865
		c-1.38-0.518-3.972-2.762-7.428-7.084l-2.244,1.905l-3.454-1.038l-9.328,0.174l0,0l0,0L212.896,340.492z"/>
	<path opacity="0.5" fill="#41A47B" enable-background="new    " d="M241.248,310.191h-0.171l-13.104,5.344l-3.97,3.794
		c-0.686,5.862,0,9.312,2.071,10.346l3.792,2.417h0.174v0.171l1.035,6.377c3.276,4.312,5.516,6.556,6.726,7.071l3.792,0.862
		l0.518,0.172v0.174c0.518,0.688,1.725,1.379,3.966,2.067l10.348,0.518c7.588,0,11.898,0.52,12.761,1.38
		c0.862,0.688,1.034,2.414,0.862,5.001c-0.174,1.725,0,2.758,0.172,2.934l3.793-0.865c2.935-1.034,4.655-1.034,5.52-0.168
		l1.378,1.719c2.067,2.591,3.451,3.622,3.792,3.451c1.037-0.346,2.242-1.38,3.449-3.104l0.346-0.519l3.104,1.896l1.896-1.551
		c0.519-2.415,1.726-3.621,3.794-3.794l0.861-0.346l-0.345-0.688l-0.345-0.348l0.173-0.168l0.172-4.313
		c-1.378-2.069-3.104-2.762-5-2.414c-1.897,0.516-3.275,0.516-3.796-0.174c-0.341-0.517-0.341-0.861-0.341-1.557
		c-1.207-2.064-2.415-3.79-3.969-5.339c-2.068-1.726-2.588-3.277-2.068-4.828l0.345-0.521l4.829,0.86l-0.344-2.928
		c-0.177-1.728,0-2.935,0.859-3.792c0.348-0.692,1.208-1.041,2.069-1.21l2.067-0.692v-0.859c-1.552-3.278-2.067-5.69-1.377-6.723
		l1.035-0.863c0.513-0.176,2.241,0.171,4.651,1.033l0,0l0.175,0.176v0.344c1.896,2.24,2.935,3.621,3.447,3.965l3.274-5.347
		c-2.928-3.62-4.479-6.205-5-7.24l-2.585,1.724l-0.343-0.347l-6.896-1.723h-0.173v-0.173c-2.932-1.381-4.655-2.93-4.832-4.48
		l-4.136-1.898v-3.969l7.584-4.48c-0.343-2.07-0.86-4.14-1.725-5.862l-1.201-2.417l-5.176,0.52
		c-2.413,1.034-4.656,1.551-6.897,1.551l-5.347-1.207v-1.897l-0.86-0.171l-1.552-0.517l-0.347-1.034l0,0v-0.174l0,0l0,0l-0.17-0.518
		v-0.173v-0.518l-0.348,0.173l-0.344,4.483l-0.173,1.551c-0.345,0.86-0.69,1.381-0.345,1.725c0.86,1.207,0.689,2.585-0.176,3.793
		l0.692,2.934l-0.173,0.172l-0.345,0.173l-2.067,1.896v3.969l-0.52,0.176c-3.794,1.724-6.379,2.583-7.934,2.583l-7.584-0.517
		l-3.276,2.934h-0.171V310.191z"/>
	<path opacity="0.5" fill="#41A47B" enable-background="new    " d="M43.869,486.732l-0.691,2.248c1.038,0,2.426-0.688,3.809-1.729
		l0.173-0.174h0.346l6.924-0.865l4.5-2.252l1.73,2.421l0.348,0.179l-2.078,3.287l2.423,2.426v0.172v0.519l-1.733,7.271l4.502,3.289
		l8.135,0.346l-1.212,1.559c-5.191,6.404-7.615,10.209-7.441,11.421l3.114,0.691c4.153,0.346,6.577,1.559,7.441,3.114
		c1.038,2.078,2.078,4.154,2.942,6.576l4.674,2.6l2.942,0.517l6.057-5.188l3.116,4.673v0.173l0,0l0.174,0.173l1.036,4.325
		l2.597,0.521l0,0l3.983,1.385l1.038-0.346v-0.174l-0.695-4.503l-0.171-0.171l-2.25-10.209v-0.35l1.386-7.096l0.345,0.172h0.521
		l4.673,0.348l5.883-4.327l0.521,0.345c3.113,2.424,5.191,4.33,6.23,5.715c1.038-0.346,2.942-2.25,5.538-5.192l0.173-0.172
		l0.349-0.351l8.65,2.252l3.808-3.113l0.174-0.177l0.174-0.171h0.174l0.172,0.171l3.633,0.693l11.771-10.381l3.636,1.032l0,0
		l0.171,0.176l0.174,0.176l0.175,0.168l0.865,1.559l0.867-1.035h0.174v-0.174h0.169l3.466-1.9l2.594-2.428l-0.693-5.361
		l-0.519-0.695l-3.289,1.389l0,0c-1.037,0.344-1.9,0.689-3.112,0.689h-3.81c-1.212-0.174-1.903-0.52-2.424-1.212l-0.346-5.538
		c-1.212-0.691-1.731-1.037-2.25-1.037l-0.867,0.346l-1.212,0.691l-2.421,0.52h-0.692l-0.175-0.351l-1.385-2.421l-0.17-2.247l0,0
		l1.384-6.578l0,0h0.172v-0.171l1.558-3.291l-4.845-4.327l-0.175-0.173l-0.173-0.172v-5.02l0.173-0.174l2.771-7.962l-1.732-4.323
		l-1.556-0.351l-1.904,0.174l-1.901,2.942l-2.424-1.732l-2.425-1.384l-1.903-4.846l0,0l0,0l-0.693-3.46v-0.35l-0.171-0.168
		l0.519-0.353l2.25-3.112l0.521-0.348l0,0h0.173l1.731-0.346l1.901-0.52l8.999-0.346h0.177l1.212,0.518l0.345,0.176l1.385,0.518
		l2.426-1.037l2.073-1.555l1.037-1.733l0.176-0.865l-0.176-3.809l-1.9-0.345l-3.636,1.21c-1.038,1.213-2.25,2.077-3.46,2.077
		c-1.211,0-2.252-1.043-3.29-2.942l0,0h-0.174v-0.171l-0.172-2.425V424.6l0.172-2.253l-1.902-4.67l-3.636,1.038l-1.557,1.385
		l0.519,5.191l-5.711-2.595l1.383,3.116l0.173,0.168v0.351l-0.519,3.46v0.345h-0.174l-3.288,4.675l0,0l-5.364,3.287l-0.521,3.116
		c-0.171,0.521,0.521,1.904,1.387,3.636l0.174,0.17v0.178l0.345,4.497v0.521l-0.171,0.171l-2.078,2.77l0,0l-0.172,0.177h-0.173
		l-1.559,1.037h-0.173h-0.174h-0.173h-0.174l-3.98-0.866c-0.69,0-1.557,0.346-2.421,1.039l-1.732,1.903l-1.384,1.729
		c-0.863,1.559-2.075,1.906-3.979,1.559c-1.212-0.173-1.557-1.384-1.212-2.941v-1.213l-0.171-1.208l-0.695,0.862
		c-0.517,0.692-1.036,0.866-1.729,0.866c-0.693-0.174-1.212-0.866-1.56-2.074v-0.176l-0.346-3.979l-0.864-3.813l-1.729-1.729l0,0
		l-0.175-0.172l-3.636-8.311l-0.174-0.172l-1.038-2.42v-0.177h-0.174v-0.176l-0.69-4.497l-0.519-0.691l-0.693,0.521
		c-1.212,1.384-2.076,2.249-2.423,2.249c-0.52,0-1.385-0.693-2.769-1.731l-2.596-1.212l-0.347-0.171l-0.174-0.174v-0.176
		l-0.171-0.347l-0.174-3.46l0,0l-0.52-2.597l-1.384-3.46h-1.385c0.171,1.384,0,2.596-0.347,3.46
		c-0.348,1.038-1.04,1.729-2.079,2.597c-0.344,1.21-0.863,2.076-1.557,2.768c-1.04,1.039-1.905,1.039-2.943,0.35l-0.519-0.174
		c-1.038-0.346-1.212-1.559-1.038-3.811v-0.865l-2.25-1.383c-0.866-0.346-1.386-1.385-1.557-2.94l0.863-7.789l-0.348-1.212
		l-2.769,3.115l-1.902,1.387l-0.521,1.207c0.691,1.561,1.039,2.771,1.039,3.639c0,1.73-0.865,3.113-2.424,3.632l-3.115,1.21
		l-0.864,0.524l-0.174,1.209v4.845c0.174,1.561,0.348,2.426,0.866,2.426c1.035,0.52,2.25,0.52,3.287-0.348l1.038-0.519l3.288,7.612
		v0.178l0,0v0.342c-1.211,13.675-2.421,21.464-3.979,23.541c-0.693,0.689-1.21,1.036-2.25,1.209c-1.212,0-2.076-0.173-3.288-0.861
		c-4.499,8.997-7.442,13.671-8.825,14.362h0.171c-0.693,0.174-1.038,2.422-0.864,6.407l1.037,0.863l0.346,0.346l0.349,0.346
		L43.869,486.732z"/>
	<path opacity="0.5" fill="#41A47B" enable-background="new    " d="M231.421,452.189l0.176,0.17l0.347,0.353l-2.26,3.47
		c-0.866,1.041-2.08,1.733-3.474,1.733h-0.345l-1.737-1.041l-1.734,0.175l-3.473,2.604c-0.865,0.347-1.907-0.521-3.473-2.604
		l-1.04,2.256h-0.172l0,0l-0.177,0.174l0,0l-1.216,1.216h-2.256l-2.258,0.692l-2.778,2.084h-0.865l-1.042,0.698
		c-0.868,0.862-1.214,1.562-0.693,2.251l1.213,1.737l-4.859-0.519l-2.604,2.086l-0.348,0.863v0.174l-0.521,1.392l-0.176,0.173
		l-0.169,0.173h-2.431l-3.127-1.216l-1.042-0.172l-2.432,0.347c-1.041,0-2.256-1.217-3.297-3.124l-2.085-0.869l-1.736,2.604l0,0
		h-0.174l-2.434,2.085h-0.172v0.173h-0.347l-1.908,0.52l-2.779,2.434l0,0l-2.949,1.388l-2.085,2.777h-6.942l0,0l-5.383-2.082
		l-2.955-0.353l-2.604,1.393h-0.173l0,0l-1.735,0.692c-0.866,0.35-1.562,0.871-2.084,1.045l-0.345,0.868v2.085l0.867,1.389
		l4.167-1.389c0.868,0,2.082,0.519,3.646,1.389l0.343,0.171l0.179,0.172l0.174,5.903l0.867,0.175h3.646l2.257-0.52l0.348-0.347
		c1.39-0.696,2.603-1.221,4.166-1.387l0.695-0.18l0.345,0.523l1.043,2.082v0.171l0.521,5.731v0.521l-3.127,3.296h-0.175v0.176
		l-3.646,1.735l-1.211,1.388l0.52,1.044l7.468,0.689l0.172,0.178l0,0l0.174,0.174l2.951,1.733l6.596-0.171v0.866l0.35,3.298v0.349
		h0.172l-2.952,2.951c-0.345,3.818,0.35,6.078,1.909,6.6l5.559,2.949l4.34,2.953l3.646-1.732l0.347-0.18l0.349-0.175l0.172,0.175
		l5.559,4.167l0.868,0.347l1.388-1.736l0.349-0.344l0.175-0.178h0.173h0.171l3.303,0.521l0.692-5.729l4.167,7.466l3.473,0.178
		l0.521,0.171h0.346v0.349v2.258l1.389-0.347l5.731-7.642l2.431,3.646v-1.213l0,0v-0.176v-0.172l1.736-3.475l1.559-2.603h4.341
		l0.693-4.865h0.525l0.345,0.176l3.298,0.521l0.35-1.733l-1.218-2.777v-0.35l0.695-1.908v-0.351l0.173-0.17h0.174v-0.177
		l9.026-4.856l-0.346-4.69l0,0v-0.172l1.734-3.473l0.351-0.695l0,0l2.779-6.423l0.172-0.175l0,0l2.255-2.257l1.389-2.604v-0.347l0,0
		l1.216-2.085l-1.043-2.604v-0.175h-0.173v-2.776h-1.389l-2.604,1.216c-1.215,0.868-2.951,0.521-5.208-0.867
		c-0.869-0.695-0.869-2.435-0.346-5.035l-1.391-0.173l-0.692,0.868c-1.562,1.735-2.779,2.774-3.128,2.774
		c-0.346,0-0.52,0-0.866-0.172c-0.175-0.518-0.521-1.39-0.521-2.775c0-1.564,0-2.605,0.521-2.951
		c0.349-0.521,0.697-0.698,1.041-0.348l3.298-6.077l0.868-2.255l0.523-2.607l-1.91-1.557c-0.521-0.525-0.694-1.74-0.35-3.479v-1.04
		c0-0.521-0.346-1.214-1.038-1.737h-0.349l-0.177,0.523c-0.52,1.387-1.734,2.085-3.646,1.563
		C233.677,451.841,232.636,451.841,231.421,452.189L231.421,452.189z"/>
	<path opacity="0.5" fill="#41A47B" enable-background="new    " d="M326.765,389.124l-0.177-0.174l-3.864-3.338l-2.104,1.056
		c-1.406,3.157-3.339,5.092-5.797,5.973c-0.702,0.351-1.58,0.174-2.107-0.352c-0.701-0.879-0.353-2.813,0.879-5.795l-5.796,3.684
		l-0.174,0.354h-0.179h-5.09l-4.567,2.283v0.352l-4.918,0.175l-2.633,1.404l-1.228,2.461l-0.353,0.35h-5.796
		c-1.056,0-3.333,1.759-7.027,5.445c1.762,0.703,2.64,1.403,2.988,1.933l0.177,1.049v-0.17l2.634,9.83l0,0l0.174,0.524v0.706h-0.174
		l-0.35,0.176h-0.179l-7.023,9.657l0.351,2.46c1.054-0.88,1.933-1.055,2.638-0.706c0.878,0.353,1.226,1.759,0.878,3.865
		c-0.352,3.338,0.173,7.022,1.756,10.536l2.459,2.634c0.876,0.879,1.226,1.758,1.051,2.635l-1.229,1.756l1.582,2.106
		c0.877,1.756,0.174,4.74-1.933,8.955l2.28,3.863l0.354,0.879l1.401-0.879c2.282-2.108,4.216-2.634,5.797-2.108
		c1.055,0.354,1.576,1.229,1.756,2.108c0.177,1.229-1.23,3.338-4.391,6.498l-2.457,3.159l1.227,1.933
		c1.756-1.578,3.162-2.104,4.038-1.759c1.06,0,4.042-1.051,9.132-3.686c1.584-0.875,3.689,0,6.323,2.635l1.052-0.526l-0.173-2.107
		l-0.528-0.352c-0.351-0.523,0-1.054,0.528-1.58l-0.879-3.336c-0.177-0.525-0.177-1.228,0-1.759
		c0.528-0.526,1.229-0.876,1.933-1.229l1.582-1.403l-0.879-2.107v-0.173h0.174v-0.179c0.705-1.053,0.705-1.931,0.526-2.456
		c-0.7-1.231-0.174-2.106,1.229-3.339l1.934-1.756l-0.352-0.35l-0.526-0.529l2.282-1.049v-2.814c0-1.052,0.875-2.457,3.334-4.215
		l1.057-0.875l0,0l-2.635-2.984c-0.881-1.231-0.527-2.81,1.055-4.395v-0.348l5.441-4.564l0.179-1.232
		c-1.056-0.353-1.408-2.279-0.879-5.266c0.7-4.742,2.808-7.025,6.495-7.55l0,0h0.354l2.283,1.228h2.458l2.282-2.811l0,0l0,0
		l0.178-0.176l2.806-1.758l-0.349-2.457v-0.526l0.349-0.353l0.706-0.352l0.879-1.053l0.172-0.178l-1.757-2.98
		c-1.753-2.286-3.333-4.391-4.389-6.852c-0.877-1.582-0.699-3.336,0.528-5.269l-3.164-1.933L326.765,389.124z"/>
	<path opacity="0.5" fill="#41A47B" enable-background="new    " d="M326.691,333.699h-0.169v-0.174
		c-1.906-6.572-3.637-10.211-4.849-10.728l-6.06-2.081c-3.459-1.033-5.882-1.729-6.92-2.42c-1.729-1.041-3.979-3.461-6.571-7.441
		h-1.044l0.177,0.175c0.344,1.383,1.729,3.807,4.671,7.268l0.174,0.174l0.174,0.345l-2.771,5.021
		c-1.041,1.901-2.073,2.769-3.111,2.42c-0.695-0.347-2.08-1.903-4.327-4.845l-2.946-0.863c0,0.863,0.524,2.592,1.734,5.361v0.176
		v0.171v0.172v0.177l-0.52,1.9l-3.118,1.383l0,0l-1.034,0.348c-0.521,0.521-0.521,1.387-0.351,2.428
		c0.351,2.593,0.177,4.148-0.345,4.844c-0.344,0.344-0.519,0.344-0.865,0.344h-0.17l0,0l-3.462-0.69
		c0.172,0.69,0.692,1.383,1.56,1.903c1.729,1.559,3.111,3.806,4.498,6.4l0.169,0.521l0,0l1.563-0.349
		c1.898-0.346,3.633,0,5.363,1.214l1.901,2.248l0.173,0.174v0.17h-0.173l-0.172,4.502c0.521,0.693,0.863,1.559,0.521,2.251
		c-0.35,0.864-1.042,1.383-2.251,1.559c-1.389,0-2.076,0.862-2.425,2.593l0,0l0,0v0.174l-1.383,2.94l2.076,2.078l4.496,0.866h0.35
		l0,0l2.248,2.424l-2.77,4.15l6.404,13.848l0.171,0.344l-1.036,1.209l0.345,1.039h0.173l11.769-7.438l-1.901,3.464
		c-1.561,2.592-2.424,4.841-2.771,6.396c2.076-0.86,3.81-2.423,4.848-5.189l0.173-0.347h0.172l3.287-1.729l0.174-0.351l4.674,4.153
		l5.188,0.176l0.177,0.171l2.422,1.56l6.402-5.539c0.52-0.521,1.039-1.556,1.729-3.284l0.692-1.389
		c0.172-0.688-0.692-2.419-2.422-5.363l-1.562-2.247l7.615,2.594l2.252-1.211L347.456,369l-0.169-0.17l3.804-5.02l-1.557-2.429
		c-1.559-1.727-2.596-2.589-3.288-2.589l-0.347,0.168l-1.904,1.907l-0.346-0.175h-0.347l-3.115-1.038l-0.863-2.771
		c-1.212-0.172-2.423-0.863-3.46-2.074l-1.905-1.216c-1.559-0.689-2.421-1.554-2.421-2.421c-0.348-1.038,0-2.249,1.039-3.807
		c1.899-2.769,2.941-5.021,2.941-6.747v-2.251l1.208,0.172l3.981,0.176c0.348-0.348,0.864-2.077,1.556-5.191l-1.208-0.174
		c-2.771,1.903-4.851,3.114-6.404,3.633c-1.903,0.521-4.327-0.519-7.788-2.939v-0.172L326.691,333.699z"/>
	<path opacity="0.5" fill="#41A47B" enable-background="new    " d="M221.109,554.29l-0.51,0.848v0.175l-0.171,0.338l-6.972,1.697
		l0.342,0.853l2.212,2.551c-0.173,0-0.513,0.172-0.683,0.172l-3.229,1.697l-5.102,3.912c-1.701,2.04-1.36,5.778,1.19,11.389
		l5.1,0.511h0.169v0.168l5.101,2.386l5.439-0.853c2.209-0.51,4.762-2.551,7.993-6.464h0.168l0.342-0.334l2.378-0.686l-0.679-7.138
		v-0.339l3.061-4.423v-0.172h0.168l2.381-1.867c0.342-2.041,0.171-3.908-0.678-5.441c-0.683-1.357-1.529-1.867-2.382-1.867
		l0.34,2.549l-4.589-0.85l-2.041,1.188h-0.17l0,0H221.109L221.109,554.29z"/>
</g>
</svg>
